<svg width="15" height="12" viewBox="0 0 15 12" fill="none" xmlns="http://www.w3.org/2000/svg">
<path d="M4.5 6.21393C5.95078 6.21393 7.125 5.03971 7.125 3.58893C7.125 2.13815 5.95078 0.963928 4.5 0.963928C3.04922 0.963928 1.875 2.13815 1.875 3.58893C1.875 5.03971 3.04922 6.21393 4.5 6.21393ZM6.3 6.96393H6.10547C5.61797 7.1983 5.07656 7.33893 4.5 7.33893C3.92344 7.33893 3.38437 7.1983 2.89453 6.96393H2.7C1.20937 6.96393 0 8.1733 0 9.66393V10.3389C0 10.96 0.503906 11.4639 1.125 11.4639H7.875C8.49609 11.4639 9 10.96 9 10.3389V9.66393C9 8.1733 7.79062 6.96393 6.3 6.96393ZM11.25 6.21393C12.4922 6.21393 13.5 5.20612 13.5 3.96393C13.5 2.72174 12.4922 1.71393 11.25 1.71393C10.0078 1.71393 9 2.72174 9 3.96393C9 5.20612 10.0078 6.21393 11.25 6.21393ZM12.375 6.96393H12.2859C11.9602 7.07643 11.6156 7.15143 11.25 7.15143C10.8844 7.15143 10.5398 7.07643 10.2141 6.96393H10.125C9.64688 6.96393 9.20625 7.10221 8.81953 7.32487C9.39141 7.94127 9.75 8.75924 9.75 9.66393V10.5639C9.75 10.6155 9.73828 10.6647 9.73594 10.7139H13.875C14.4961 10.7139 15 10.21 15 9.58893C15 8.13815 13.8258 6.96393 12.375 6.96393Z" fill="#FFFBEB"/>
</svg>
