<svg width="23" height="22" viewBox="0 0 23 22" fill="currentColor" xmlns="http://www.w3.org/2000/svg">
<path d="M22.1779 10.8853L12.1973 0.911956C12.1255 0.839953 12.0401 0.782828 11.9462 0.743852C11.8522 0.704877 11.7515 0.684814 11.6497 0.684814C11.548 0.684814 11.4473 0.704877 11.3533 0.743852C11.2593 0.782828 11.174 0.839953 11.1021 0.911956L1.12155 10.8853C0.830783 11.176 0.666016 11.571 0.666016 11.9829C0.666016 12.8382 1.36143 13.5337 2.21677 13.5337H3.26838V20.6502C3.26838 21.079 3.61487 21.4255 4.04376 21.4255H10.099V15.9979H12.8128V21.4255H19.2557C19.6846 21.4255 20.0311 21.079 20.0311 20.6502V13.5337H21.0827C21.4946 13.5337 21.8896 13.3713 22.1803 13.0781C22.7837 12.4724 22.7837 11.491 22.1779 10.8853Z" fill="currentColor"/>
</svg>
