<svg width="123" height="67" viewBox="0 0 123 67" fill="none" xmlns="http://www.w3.org/2000/svg">
<path fill-rule="evenodd" clip-rule="evenodd" d="M43.4177 5.63551H5.58228V61.3645H43.4177V5.63551ZM0 0V67H49V0H0Z" fill="#DAD7CD"/>
<path d="M24.0331 26.208C15.0689 35.6402 5.25386 30.1381 1 26.208V66H48V26.208C43.7461 22.2779 32.9974 16.7758 24.0331 26.208Z" fill="#DAD7CD"/>
<path d="M123 58.2097C123 60.028 122.646 61.5619 121.939 62.8113C121.232 64.0554 120.278 64.9992 119.076 65.6425C117.875 66.2805 116.535 66.5995 115.057 66.5995C113.568 66.5995 112.223 66.2778 111.021 65.6345C109.825 64.9859 108.873 64.0395 108.166 62.7954C107.464 61.5459 107.114 60.0174 107.114 58.2097C107.114 56.3913 107.464 54.8601 108.166 53.616C108.873 52.3665 109.825 51.4228 111.021 50.7848C112.223 50.1415 113.568 49.8198 115.057 49.8198C116.535 49.8198 117.875 50.1415 119.076 50.7848C120.278 51.4228 121.232 52.3665 121.939 53.616C122.646 54.8601 123 56.3913 123 58.2097ZM118.438 58.2097C118.438 57.2314 118.308 56.4073 118.047 55.7374C117.792 55.0621 117.412 54.5517 116.907 54.2061C116.407 53.8552 115.79 53.6798 115.057 53.6798C114.323 53.6798 113.704 53.8552 113.199 54.2061C112.699 54.5517 112.319 55.0621 112.058 55.7374C111.803 56.4073 111.675 57.2314 111.675 58.2097C111.675 59.1879 111.803 60.0147 112.058 60.6899C112.319 61.3598 112.699 61.8702 113.199 62.2212C113.704 62.5667 114.323 62.7395 115.057 62.7395C115.79 62.7395 116.407 62.5667 116.907 62.2212C117.412 61.8702 117.792 61.3598 118.047 60.6899C118.308 60.0147 118.438 59.1879 118.438 58.2097Z" fill="#DAD7CD"/>
<path d="M90.334 66.3762V50.0431H94.7682V56.4232H100.638V50.0431H105.072V66.3762H100.638V59.9961H94.7682V66.3762H90.334Z" fill="#DAD7CD"/>
<path d="M88.2364 50.0431V66.3762H84.536L78.6344 57.7949H78.5387V66.3762H74.1045V50.0431H77.8688L83.6746 58.5924H83.8023V50.0431H88.2364Z" fill="#DAD7CD"/>
<path d="M72.003 50.0431V66.3762H67.5688V50.0431H72.003Z" fill="#DAD7CD"/>
<path d="M52.8308 66.3762V50.0431H59.8808C61.093 50.0431 62.1537 50.2823 63.0629 50.7609C63.9721 51.2394 64.6792 51.9119 65.1843 52.7786C65.6894 53.6452 65.9419 54.658 65.9419 55.8171C65.9419 56.9868 65.6814 57.9996 65.1604 58.8556C64.6446 59.7116 63.9189 60.3709 62.9832 60.8334C62.0527 61.296 60.9654 61.5273 59.7213 61.5273H55.5105V58.082H58.8281C59.3492 58.082 59.7931 57.9916 60.16 57.8109C60.5321 57.6248 60.8166 57.3616 61.0133 57.0213C61.2153 56.6811 61.3164 56.2796 61.3164 55.8171C61.3164 55.3492 61.2153 54.9505 61.0133 54.6208C60.8166 54.2859 60.5321 54.0307 60.16 53.8552C59.7931 53.6744 59.3492 53.584 58.8281 53.584H57.265V66.3762H52.8308Z" fill="#DAD7CD"/>
<path d="M87.4609 25.7136H92.9797L96.7759 34.9648H96.9673L100.763 25.7136H106.282V42.0467H101.944V32.6041H101.816L98.1795 41.9191H95.5637L91.927 32.5403H91.7994V42.0467H87.4609V25.7136Z" fill="#DAD7CD"/>
<path d="M73.8293 42.0467H69.0442L74.4354 25.7136H80.4965L85.8877 42.0467H81.1026L77.5297 30.2116H77.4021L73.8293 42.0467ZM72.9361 35.6028H81.932V38.9204H72.9361V35.6028Z" fill="#DAD7CD"/>
<path d="M68.0793 31.8386H63.5814C63.5495 31.4664 63.4644 31.1288 63.3262 30.8257C63.1932 30.5227 63.0072 30.2621 62.7679 30.0442C62.534 29.8209 62.2495 29.6507 61.9146 29.5337C61.5796 29.4115 61.1995 29.3503 60.7741 29.3503C60.0298 29.3503 59.3997 29.5311 58.884 29.8926C58.3736 30.2542 57.9855 30.7726 57.7196 31.4478C57.4591 32.123 57.3289 32.9338 57.3289 33.8802C57.3289 34.8797 57.4618 35.7171 57.7276 36.3924C57.9988 37.0623 58.3896 37.5674 58.9 37.9076C59.4104 38.2426 60.0245 38.4101 60.7422 38.4101C61.1516 38.4101 61.5185 38.3596 61.8428 38.2585C62.1671 38.1522 62.4489 38.0007 62.6882 37.804C62.9274 37.6072 63.1215 37.3706 63.2703 37.0942C63.4245 36.8124 63.5282 36.496 63.5814 36.1451L68.0793 36.177C68.0262 36.8682 67.8321 37.5727 67.4972 38.2904C67.1622 39.0029 66.6864 39.6622 66.0696 40.2683C65.4582 40.8691 64.7005 41.3529 63.7967 41.7198C62.8928 42.0866 61.8428 42.27 60.6465 42.27C59.1472 42.27 57.8021 41.9484 56.6111 41.305C55.4255 40.6617 54.4871 39.7153 53.7959 38.4659C53.11 37.2165 52.7671 35.6879 52.7671 33.8802C52.7671 32.0619 53.118 30.5306 53.8198 29.2865C54.5216 28.0371 55.468 27.0934 56.659 26.4553C57.8499 25.812 59.1791 25.4904 60.6465 25.4904C61.678 25.4904 62.627 25.6313 63.4936 25.913C64.3603 26.1948 65.1206 26.6069 65.7745 27.1492C66.4285 27.6862 66.9548 28.3481 67.3536 29.135C67.7524 29.9219 67.9943 30.8231 68.0793 31.8386Z" fill="#DAD7CD"/>
</svg>
