<svg width="24" height="24" viewBox="0 0 24 24" fill="none" xmlns="http://www.w3.org/2000/svg">
<path d="M7.24882 11.818L2.64027 7.20943C0.825981 9.18725 0.138459 11.1686 0.126523 11.2092L0 11.5864L0.12533 11.9636C0.151589 12.0436 2.88974 19.9417 12.0006 19.9417C13.1095 19.9417 14.1193 19.82 15.0467 19.6159L11.769 16.3382C10.5889 16.2803 9.47246 15.7855 8.63697 14.95C7.80148 14.1145 7.30667 12.9981 7.24882 11.818ZM12.0006 3.23111C9.78644 3.23111 7.97215 3.71333 6.45984 4.42234L2.0375 0L0.349729 1.68777L21.8348 23.1728L23.5226 21.4851L19.586 17.5485C22.7348 15.2174 23.858 12.0137 23.8747 11.9636L24 11.5864L23.8747 11.2092C23.8484 11.1293 21.1115 3.23111 12.0006 3.23111ZM14.2756 12.2381C14.4988 11.43 14.309 10.5205 13.6884 9.89864C13.0677 9.27677 12.157 9.08818 11.3489 9.31138L9.54891 7.51141C10.2865 7.05782 11.1347 6.81584 12.0006 6.81195C14.6337 6.81195 16.7751 8.9533 16.7751 11.5864C16.7715 12.4522 16.5291 13.3001 16.0744 14.0369L14.2756 12.2381Z" fill="#E22D5A"/>
</svg>
