<svg width="22" height="22" viewBox="0 0 21 21" fill="currentColor" xmlns="http://www.w3.org/2000/svg">
<path d="M10.5 0C4.6996 0 0 4.6996 0 10.5C0 16.3004 4.6996 21 10.5 21C16.3004 21 21 16.3004 21 10.5C21 4.6996 16.3004 0 10.5 0ZM10.5 4.06452C12.5577 4.06452 14.2258 5.73266 14.2258 7.79032C14.2258 9.84798 12.5577 11.5161 10.5 11.5161C8.44234 11.5161 6.77419 9.84798 6.77419 7.79032C6.77419 5.73266 8.44234 4.06452 10.5 4.06452ZM10.5 18.629C8.01472 18.629 5.7877 17.5028 4.29738 15.7415C5.09335 14.2427 6.65141 13.2097 8.46774 13.2097C8.56935 13.2097 8.67097 13.2266 8.76835 13.2562C9.31875 13.4341 9.89456 13.5484 10.5 13.5484C11.1054 13.5484 11.6855 13.4341 12.2317 13.2562C12.329 13.2266 12.4306 13.2097 12.5323 13.2097C14.3486 13.2097 15.9067 14.2427 16.7026 15.7415C15.2123 17.5028 12.9853 18.629 10.5 18.629Z" fill="currentColor"/>
</svg>
